<svg width="22" height="24" viewBox="0 0 22 24" fill="none" xmlns="http://www.w3.org/2000/svg">
<g id="uil:enter">
<path id="Vector" d="M17.2473 5.83325C17.0066 5.83325 16.7757 5.93568 16.6055 6.11801C16.4352 6.30034 16.3396 6.54762 16.3396 6.80547V10.6944C16.3396 10.9522 16.244 11.1995 16.0737 11.3818C15.9035 11.5642 15.6726 11.6666 15.4319 11.6666H6.72662L7.90668 10.4124C8.07761 10.2293 8.17364 9.98105 8.17364 9.72214C8.17364 9.46324 8.07761 9.21494 7.90668 9.03186C7.73575 8.84879 7.50392 8.74594 7.26218 8.74594C7.02045 8.74594 6.78862 8.84879 6.61769 9.03186L3.89446 11.9485C3.81182 12.041 3.74704 12.15 3.70384 12.2694C3.61304 12.5061 3.61304 12.7716 3.70384 13.0083C3.74704 13.1276 3.81182 13.2366 3.89446 13.3291L6.61769 16.2458C6.70207 16.3369 6.80247 16.4092 6.91309 16.4586C7.0237 16.5079 7.14235 16.5333 7.26218 16.5333C7.38202 16.5333 7.50066 16.5079 7.61128 16.4586C7.7219 16.4092 7.8223 16.3369 7.90668 16.2458C7.99176 16.1554 8.05929 16.0478 8.10538 15.9294C8.15146 15.8109 8.17519 15.6838 8.17519 15.5555C8.17519 15.4271 8.15146 15.3001 8.10538 15.1816C8.05929 15.0631 7.99176 14.9556 7.90668 14.8652L6.72662 13.611H15.4319C16.1541 13.611 16.8468 13.3037 17.3575 12.7568C17.8682 12.2098 18.1551 11.4679 18.1551 10.6944V6.80547C18.1551 6.54762 18.0595 6.30034 17.8892 6.11801C17.719 5.93568 17.4881 5.83325 17.2473 5.83325Z" fill="white"/>
</g>
</svg>
