<svg width="36" height="36" viewBox="0 0 36 36" fill="none" xmlns="http://www.w3.org/2000/svg">
<g id="octicon:thumbsup-16" clip-path="url(#clip0_41_12)">
<path id="Vector" d="M18.7808 1.41972C18.951 1.11829 19.2099 0.87651 19.5222 0.727184C19.8345 0.577859 20.1852 0.52821 20.5268 0.584972L21.0623 0.674972C22.0781 0.84423 23.0468 1.22616 23.9048 1.79575C24.7628 2.36533 25.4908 3.10974 26.0412 3.98021C26.5915 4.85068 26.9518 5.82758 27.0985 6.84695C27.2451 7.86633 27.1747 8.90517 26.892 9.89547L25.8615 13.5H27.3578C28.4944 13.5 29.6154 13.7649 30.6317 14.2738C31.6481 14.7826 32.5318 15.5214 33.2128 16.4315C33.8937 17.3416 34.3532 18.3978 34.5546 19.5165C34.7561 20.6351 34.694 21.7853 34.3733 22.8757L31.8195 31.5585C31.4423 32.8408 30.66 33.9666 29.5896 34.7672C28.5193 35.5678 27.2184 36.0003 25.8818 36H14.8185C13.0557 35.9997 11.3373 35.4474 9.9045 34.4205C9.53775 34.9109 9.06165 35.3091 8.51404 35.5833C7.96644 35.8575 7.36242 36.0001 6.75 36H3.9375C2.89321 36 1.89169 35.5851 1.15327 34.8467C0.414843 34.1083 0 33.1068 0 32.0625L0 17.4375C0 15.264 1.764 13.5 3.9375 13.5H11.6258C11.7251 13.4997 11.8226 13.4731 11.9084 13.4229C11.9942 13.3728 12.0651 13.3007 12.114 13.2142L18.7808 1.41972ZM10.6875 30.7102L11.5785 31.4527C12.4875 32.211 13.635 32.625 14.8185 32.625H25.8818C26.4894 32.6254 27.0809 32.429 27.5676 32.0652C28.0543 31.7013 28.4101 31.1897 28.5818 30.6067L31.1355 21.924C31.3083 21.3368 31.3418 20.7174 31.2334 20.1149C31.1249 19.5125 30.8775 18.9437 30.5108 18.4536C30.1441 17.9635 29.6682 17.5656 29.1209 17.2916C28.5735 17.0176 27.9699 16.8749 27.3578 16.875H23.625C23.3638 16.8749 23.1063 16.8143 22.8725 16.6977C22.6388 16.5812 22.4353 16.4121 22.2781 16.2036C22.1208 15.9951 22.0141 15.7529 21.9663 15.4962C21.9186 15.2394 21.931 14.9751 22.0028 14.724L23.6475 8.96847C23.9259 7.99379 23.8176 6.9493 23.3453 6.05242C22.873 5.15554 22.0729 4.47536 21.1118 4.15347L15.0525 14.8747C14.7095 15.4816 14.2116 15.9866 13.6095 16.338C13.0074 16.6895 12.3229 16.8748 11.6258 16.875H10.6875V30.7102ZM7.3125 16.875H3.9375C3.78832 16.875 3.64524 16.9342 3.53975 17.0397C3.43426 17.1452 3.375 17.2883 3.375 17.4375V32.0625C3.375 32.373 3.627 32.625 3.9375 32.625H6.75C6.89919 32.625 7.04226 32.5657 7.14775 32.4602C7.25324 32.3547 7.3125 32.2117 7.3125 32.0625V16.875Z" fill="black"/>
</g>
<defs>
<clipPath id="clip0_41_12">
<rect width="36" height="36" fill="white"/>
</clipPath>
</defs>
</svg>
